<?xml version="1.0" standalone="no"?>
<!DOCTYPE svg PUBLIC "-//W3C//DTD SVG 1.1//EN" "http://www.w3.org/Graphics/SVG/1.1/DTD/svg11.dtd" >
<svg xmlns="http://www.w3.org/2000/svg">
<metadata>Generated by IcoMoon</metadata>
<defs>
<font id="icomoon" horiz-adv-x="1024">
<font-face units-per-em="1024" ascent="960" descent="-64" />
<missing-glyph horiz-adv-x="1024" />
<glyph unicode="&#x20;" horiz-adv-x="512" d="" />
<glyph unicode="&#xe900;" glyph-name="arrow-square-out" d="M594.772 828.776c-3.752-1.736-8.656-5.144-10.896-7.576-4.020-4.364-9.168-19.812-7.94-23.828 0.348-1.136 1.092-4.164 1.652-6.728 1.268-5.788 9.968-15.888 17.012-19.744 4.764-2.612 14.588-2.948 98.232-3.396l92.94-0.496-134.268-134.332c-94.244-94.288-135.048-136.22-136.884-140.676-5.064-12.264-2.864-23.7 6.444-33.536 9.732-10.284 22.232-13.088 34.936-7.844 4.456 1.836 46.388 42.64 140.676 136.884l134.332 134.268 0.496-92.94c0.448-83.644 0.784-93.468 3.396-98.232 3.856-7.044 13.956-15.744 19.744-17.012 2.564-0.56 5.592-1.304 6.728-1.652 4.372-1.336 19.68 4.088 24.456 8.664 10.632 10.184 10.316 5.204 9.792 154.512l-0.472 135.804-4.584 6.924c-2.756 4.168-7.552 8.36-12.056 10.54-7.428 3.596-8.364 3.62-142.192 3.584-127.324-0.036-135.092-0.212-141.544-3.188zM178.1 702.244c-17.876-3.584-36.016-18.532-44.468-36.644l-4.78-10.24v-542.72l4.776-10.24c6.268-13.44 19.416-26.64 32.592-32.732l10.42-4.816h542.72l10.42 4.816c13.176 6.092 26.324 19.292 32.592 32.732l4.776 10.24 0.512 153.6c0.352 105.576-0.056 155.564-1.312 159.884-2.64 9.076-15.224 19.676-25.116 21.16-17.052 2.556-32.604-8.004-36.148-24.54-1.36-6.34-1.936-51.888-1.936-152.32v-143.276h-510.296v512h142.424c97.12 0 145.208 0.596 151.176 1.876 16.376 3.512 26.988 18.3 25.108 34.992-0.996 8.836-4.424 14.236-13.908 21.912l-6.448 5.22-153.016 0.256c-84.156 0.14-156.196-0.38-160.088-1.16z" />
<glyph unicode="&#xe901;" glyph-name="check-circle" d="M482.562 878.783c-83.222-5.217-163.644-35.411-233.036-87.408-22.176-16.625-65.065-59.548-81.522-81.562-44.716-59.916-71.883-124.246-83.851-198.593-5.021-31.218-5.453-89.501-0.865-120.923 11.26-77.936 41.375-147.288 85.541-205.363l-0.786 1.091c16.694-22.343 59.548-65.202 81.886-81.886 56.978-43.399 126.346-73.505 201.904-84.431l2.368-0.285c14.728-2.13 32.414-3.095 57.617-3.095 68.989 0 128.302 13.569 188.846 43.193 46.649 22.805 78.467 45.649 116.206 83.35 37.7 37.74 60.574 69.585 83.35 116.206 27.551 55.239 43.681 120.333 43.681 189.2 0 71.096-17.188 138.171-47.644 197.306l1.13-2.417c-25.271 50.169-71.716 107.356-115.175 141.704-86.081 68.061-190.514 100.81-299.668 93.922zM570.333 808.865c76.217-12.822 142.716-47.556 194.594-97.4l-0.128 0.118c57.057-54.53 94.158-125.246 108.189-206.041 4.291-24.743 4.291-90.169-0.029-115.237-10.366-61.862-34.831-116.668-70.017-162.883l0.658 0.894c-103.201-138.412-293.616-185.26-448.718-110.449-36.934 17.509-68.582 39.675-95.897 66.273l0.079-0.079c-57.283 54.758-94.423 125.413-108.425 206.238-4.323 24.937-4.323 90.304 0 115.237 22.636 130.866 107.422 235.464 229.848 283.643 20.85 8.174 57.951 17.725 79.026 20.318 8.774 1.061 17.951 2.292 20.378 2.692 10.14 1.759 74.477-0.629 90.434-3.321zM664.324 577.258c-6.121-2.761-32.847-28.425-113.51-109.024l-105.526-105.428-38.103 38.172c-47.546 47.615-56.025 52.533-75.342 43.586-9.020-3.724-15.701-11.516-17.824-21.017l-0.029-0.196c-0.835-2.702-1.317-5.807-1.317-9.030 0-7.281 2.454-13.992 6.583-19.344l-0.059 0.079c2.496-3.587 27.099-29.025 54.689-56.524 51.368-51.238 58.844-57.224 71.42-57.224 13.732 0 17.322 3.223 137.911 123.684 64.135 64.072 118.692 119.459 121.188 123.055 4.078 5.276 6.534 11.977 6.534 19.258 0 3.213-0.481 6.328-1.375 9.256l0.059-0.226c-2.152 9.698-8.833 17.489-17.656 21.135l-0.196 0.079c-9.177 4.254-17.558 4.156-27.462-0.298z" />
<glyph unicode="&#xe902;" glyph-name="check" d="M878.298 741.498c-4.052-1.715-93.607-90.087-260.343-256.754l-254.182-254.118-105.787 105.627c-58.213 58.117-108.327 106.909-111.418 108.454-18.67 9.284-43.329-4.71-45.732-25.946-1.842-16.493-5.399-12.449 121.327-139.535 64.861-64.998 121.295-120.215 125.445-122.682 4.604-2.868 10.184-4.57 16.165-4.57s11.564 1.704 16.301 4.644l-0.13-0.074c4.15 2.467 127.32 124.46 273.744 271.077 232.787 233.147 266.463 267.52 268.241 273.84 2.763 9.845 2.499 14.387-1.281 22.622-7.738 16.694-26.243 24.296-42.344 17.415z" />
<glyph unicode="&#xe903;" glyph-name="code" d="M627.2 828.776c-8.176-3.776-13.46-9.208-16.856-17.34-6.048-14.476-256.028-702.94-257.592-709.428-3.272-13.584 4.636-28.56 18.376-34.8 16.48-7.488 35.368 0.22 42.528 17.356 5.812 13.912 255.996 702.808 257.496 709.036 3.3 13.688-4.656 29.004-18.28 35.192-8.768 3.984-17.016 3.976-25.672-0.016zM241.776 636.388c-6.84-3.708-197.272-162.64-202.88-169.324-8-9.532-8.576-26.176-1.268-36.66 4.432-6.36 192.812-163.936 203.124-169.908 13.084-7.58 31.164-4.28 39.992 7.296 9.576 12.552 9.244 29.448-0.8 40.712-2.712 3.036-41.036 35.476-85.164 72.084-44.132 36.608-80.24 66.944-80.24 67.412s36.108 30.804 80.24 67.412c44.128 36.608 82.452 69.048 85.164 72.084 13.324 14.944 8.96 39.288-8.66 48.276-8 4.080-22.552 4.384-29.508 0.616zM752.208 635.616c-9.792-5.172-15.724-15.368-15.724-27.036 0-6.468 1.112-11.496 3.432-15.528 2.128-3.696 34.96-32.2 86.48-75.080 45.676-38.016 83.048-69.504 83.048-69.972s-37.372-31.956-83.048-69.972c-51.52-42.88-84.352-71.384-86.48-75.080-2.34-4.060-3.432-9.060-3.432-15.68 0-8.040 0.88-10.968 5.092-16.928 9.844-13.94 27.432-18.092 41.672-9.844 10.312 5.972 198.692 163.548 203.124 169.908 7.308 10.484 6.732 27.128-1.268 36.66-5.984 7.132-196.488 165.92-203.26 169.424-7.176 3.712-21.764 3.28-29.636-0.872z" />
<glyph unicode="&#xe904;" glyph-name="copy-simple" d="M280.575 820.934c-27.734-12.641-23.786-52.174 5.873-58.561 5.967-1.271 87.706-1.835 273.294-1.835h264.745v-264.745c0-185.558 0.564-267.333 1.835-273.294 3.527-16.495 18.8-26.839 35.769-24.301 9.821 1.459 21.665 11.611 24.162 20.729 2.301 8.227 2.305 575.243 0.045 583.47-1.598 4.371-3.997 8.087-7.095 11.186v0c-11.656 11.28 11.889 10.479-304.931 10.434-274.007-0.045-287.345-0.188-293.737-3.057zM155.234 695.544c-8.505-3.948-15.465-11.329-17.578-18.661-2.211-7.802-2.211-575.055 0.045-583.139 2.068-7.381 12.551-17.815 20.161-19.977 3.666-1.079 108.762-1.647 291.491-1.647s287.825 0.609 291.491 1.647c7.569 2.162 18.093 12.596 20.161 19.977 2.256 8.129 2.256 575.243 0 583.327-1.598 4.371-3.997 8.087-7.095 11.186v0c-11.656 11.28 11.889 10.479-304.931 10.434-275.793-0.045-287.3-0.143-293.737-3.147zM699.143 384.551v-250.646h-499.594v501.286h499.594v-250.646z" />
<glyph unicode="&#xe905;" glyph-name="dots-six-vertical" d="M330.332 794.276c-32.924-16.404-39.42-60.432-12.568-85.18 11.204-10.328 19.936-13.752 35.588-13.952 15.748-0.2 26.436 4.088 37.332 14.988 10.9 10.896 15.184 21.584 14.988 37.332-0.2 15.396-3.528 24.12-13.408 35.072-15.080 16.732-41.768 21.792-61.932 11.74zM648.12 794.68c-10.568-4.932-21.844-16.412-26.504-26.988-4.656-10.576-4.42-31.292 0.476-41.816 9.104-19.572 27.168-31.004 48.56-30.732 15.652 0.204 24.384 3.624 35.588 13.952 26.796 24.696 20.28 68.808-12.568 85.18-13.16 6.56-32 6.724-45.548 0.404zM336.824 497.976c-18.092-6.744-29.396-19.504-34.324-38.74-2.596-10.144-2.588-12.356 0.084-22.796 3.868-15.096 12.604-26.984 24.94-33.936 26.1-14.708 58.976-5.088 72.268 21.144 6.964 13.74 8.268 24.884 4.448 38.024-6.464 22.24-24.832 36.956-47.748 38.252-7.88 0.448-15.18-0.276-19.672-1.948zM654.136 497.86c-25.712-9.172-40.92-34.98-35.332-59.948 8.576-38.332 50.428-54.608 82.776-32.192 9.576 6.636 16.384 17.244 19.92 31.044 2.584 10.096 2.584 12.376 0 22.468-4.948 19.292-16.464 32.256-34.324 38.628-9.132 3.256-23.916 3.256-33.044 0zM343.024 200.332c-49.028-10.34-57.128-76.84-12.044-98.896 26.192-12.82 59.428-0.344 71.372 26.784 4.692 10.656 4.476 31.336-0.44 41.9-10.144 21.812-35.944 35.048-58.888 30.208zM658.536 200.048c-17.256-3.492-33.612-19.124-38.844-37.128-12.412-42.708 33.32-81.060 73.328-61.484 18.564 9.084 29.672 26.568 29.82 46.968 0.252 33.552-30.74 58.444-64.308 51.644z" />
<glyph unicode="&#xe906;" glyph-name="faders" d="M185.020 860.912c-9.65-4.727-16.701-13.493-19.011-24.023l-0.042-0.234c-1.249-5.414-1.946-74.476-1.946-198.478l-0.072-190.181-37.482-0.032c-32.348-0.032-38.491-0.521-44.946-3.436-15.305-6.943-23.706-23.394-19.678-38.419 3.091-11.557 6.904-16.73 16.763-22.522l8.538-4.998h111.995c108.313 0 112.204 0.104 119.246 3.716 4.028 2.011 9.859 6.904 12.982 10.796 5.030 6.351 5.655 8.466 5.655 19.574 0 15.546-5.655 25.404-18.045 31.411-7.464 3.612-11.173 3.924-46.404 3.924h-38.282v192.96c0 120.912-0.696 195.427-1.842 199.52-3.403 12.182-20.062 24.019-33.734 23.947-5.050-0.416-9.703-1.666-13.971-3.612l0.26 0.104zM498.059 860.944c-8.476-3.696-15.035-10.474-18.349-18.887l-0.078-0.234c-2.427-5.863-2.844-19.814-2.844-96.691v-89.853h-38.94c-35.12 0-39.668-0.345-46.124-3.644-13.431-6.839-20.127-20.479-17.772-36.161 1.633-10.86 12.878-23.979 22.977-26.79 9.13-2.499 220.896-2.499 230.026 0 10.099 2.811 21.344 15.93 22.977 26.79 2.362 15.689-4.341 29.328-17.772 36.161-6.455 3.299-11.004 3.644-46.124 3.644h-38.94l-0.032 90.237c-0.032 83.781-0.28 90.79-3.436 97.661-8.401 18.116-28.111 25.821-45.571 17.772zM810.857 860.944c-9.403-4.373-17.147-12.566-19.47-20.687-1.145-3.989-1.802-102.834-1.802-268.725v-262.373h-38.282c-35.224 0-38.94-0.312-46.404-3.924-14.817-7.184-22.626-26.621-17.251-42.928 3.299-9.923 14.505-19.053 26.517-21.552 6.976-1.425 42.551-1.906 116.298-1.529l106.269 0.521 8.538 4.998c19.398 11.42 23.739 34.775 9.546 51.642-9.579 11.349-15.546 12.702-57.401 12.735l-37.482 0.032-0.072 259.595c0 171.72-0.696 262.406-1.946 267.892-5.069 21.969-27.279 33.454-47.061 24.292zM493.198 511.185c-4.965-3.156-8.986-7.36-11.842-12.318l-0.094-0.176c-3.436-6.976-3.572-14.192-4.093-221-0.384-148.262 0.032-215.866 1.425-220.623 4.061-14.023 19.053-25.476 33.35-25.476s29.289 11.453 33.35 25.476c1.386 4.757 1.802 72.361 1.425 220.623-0.521 206.808-0.657 214.024-4.093 221-5.31 10.692-17.563 17.772-30.682 17.772-0.592 0.042-1.275 0.072-1.959 0.072-6.289 0-12.11-2.004-16.867-5.404l0.084 0.062zM185.020 305.627c-9.65-4.727-16.701-13.493-19.011-24.023l-0.042-0.234c-2.675-11.661-2.675-209.547 0.032-222.080 3.924-18.253 20.823-29.745 39.636-26.934 10.86 1.633 23.979 12.878 26.79 22.977 2.466 8.954 2.531 220.896 0.032 229.85-3.403 12.182-20.062 24.019-33.734 23.947-5.050-0.416-9.703-1.666-13.971-3.612l0.26 0.104zM810.857 166.839c-9.403-4.373-17.147-12.566-19.47-20.687-2.395-8.329-2.323-82.18 0.072-90.822 2.811-10.099 15.93-21.344 26.79-22.977 1.76-0.322 3.79-0.501 5.863-0.501 16.555 0 30.374 11.651 33.724 27.207l0.042 0.228c2.571 11.902 2.571 72.185 0.032 83.261-5.069 21.969-27.279 33.454-47.061 24.292z" />
<glyph unicode="&#xe907;" glyph-name="house" d="M497.247 877.51c-5.561-1.244-13.853-4.14-18.41-6.449-9.903-5.079-361.76-355.387-370.173-368.616-11.68-18.284-11.147-7.084-11.147-242.134 0-134.256 0.686-216.221 1.829-220.342 2.285-8.151 13.853-19.654 22.213-22.041 3.936-1.142 61.035-1.829 150.042-1.802 136.364 0.024 144.071 0.204 151.284 3.478 9.599 4.71 16.62 13.421 18.932 23.908l0.039 0.24c1.22 5.205 1.93 52.539 1.93 128.455l0.075 120.202h136.301l0.075-120.202c0-75.925 0.723-123.26 1.93-128.455 2.488-10.843 9.599-19.892 18.968-24.149 7.213-3.276 14.932-3.454 151.284-3.478 89.005-0.024 146.104 0.66 150.042 1.802 8.355 2.387 19.933 13.89 22.213 22.041 1.142 4.113 1.829 86.073 1.829 220.342 0 235.056 0.507 223.858-11.147 242.134-2.896 4.557-85.525 88.409-183.584 186.351-190.566 190.288-184.828 185.068-207.733 189.284-12.849 2.387-13.637 2.387-26.765-0.558zM684.702 638.288l171.775-171.775v-382.277h-206.311v124.417c0 107.796-0.381 125.317-2.83 131.196-2.779 7.783-8.508 13.916-15.79 17.154l-0.191 0.075c-6.449 3.327-12.57 3.478-119.338 3.478s-112.875-0.177-119.338-3.478c-7.476-3.327-13.218-9.459-15.934-17.040l-0.063-0.204c-2.464-5.867-2.83-23.387-2.83-131.196v-124.417h-206.311v382.277l171.775 171.775c94.477 94.503 172.183 171.802 172.702 171.802 0.483 0 78.237-77.286 172.702-171.802z" />
<glyph unicode="&#xe908;" glyph-name="link-simple" d="M687.92 863.706c-25.275-2.125-61.788-11.799-81.079-21.486-15.652-8.056-29.115-16.79-41.599-26.675l0.52 0.41c-17.639-13.779-145.308-141.877-147.691-148.205-4.105-10.922-0.258-28.504 7.807-35.681 8.885-7.895 23.251-10.191 34.419-5.555 4.307 1.766 28.403 24.557 73.846 69.74 69.64 69.267 79.055 77.333 103.182 88.255 23.050 10.449 34.993 12.745 65.951 12.644 25.692-0.057 29.538-0.473 43.216-4.679 48.728-14.984 85.701-48.154 104.257-93.552 9.358-22.879 10.607-30.169 10.462-61.416-0.101-25.591-0.517-29.582-4.723-43.216-5.36-17.37-12.631-32.502-21.741-46.284l0.413 0.671c-3.387-5.297-35.926-39.427-74.003-77.749-45.67-45.928-68.807-70.415-70.617-74.719-8.311-19.908 4.535-41.924 25.477-43.676 1.188-0.104 2.548-0.161 3.944-0.161 3.9 0 7.697 0.473 11.329 1.397l-0.315-0.057c4.263 1.406 25.648 21.845 77.648 74.104 74.302 74.719 82.053 83.677 95.989 111.591 7.391 14.826 16.806 42.743 20.237 60.124 4.048 20.325 4.048 60.798 0 81.123-20.697 104.431-106.596 178.535-212.162 182.996-3.907 0.205-8.485 0.312-13.108 0.312-4.108 0-8.21-0.097-12.269-0.262l0.574 0.010zM632.392 606.929c-3.273-0.832-6.095-1.923-8.791-3.279l0.252 0.107c-1.866-1.047-63.138-61.731-136.135-134.845-119.975-120.177-132.922-133.694-134.688-140.414-0.735-2.592-1.188-5.555-1.188-8.623 0-17.733 14.359-32.092 32.092-32.092 3.068 0 6.032 0.423 8.838 1.242l-0.215-0.054c6.716 1.766 20.237 14.712 140.414 134.688 73.127 72.969 133.969 134.644 135.262 137.040 8.053 15.128 2.037 35.926-12.543 43.374-4.793 2.182-10.412 3.44-16.333 3.44-2.45 0-4.847-0.211-7.186-0.631l0.255 0.047zM289.834 540.304c-3.286-1.823-37.591-35.090-76.185-73.902-74.936-75.41-81.895-83.677-96.264-114.407-15.4-32.868-21.328-59.593-21.328-96.321 0-61.946 21.687-114.249 65.578-158.096 43.847-43.891 96.15-65.578 158.096-65.578 36.758 0 63.453 5.928 96.321 21.328 30.73 14.397 38.997 21.328 114.407 96.264 38.84 38.594 72.080 73.054 73.902 76.544 9.775 18.931-3.286 42.901-24.701 45.341-15.558 1.722-15.558 1.722-90.797-72.969-42.082-41.851-74.363-72.496-80.864-76.816-14.051-9.459-28.29-15.961-47.278-21.687-13.634-4.105-18.257-4.635-40.991-4.736-21.687-0.101-27.873 0.473-40.145 3.803-91.944 24.96-142.378 118.351-112.067 207.483 11.124 32.754 14.554 36.973 92.733 115.753 47.379 47.738 71.247 72.969 73.054 77.276 1.611 3.645 2.544 7.908 2.544 12.382 0 10.704-5.347 20.133-13.48 25.839l-0.104 0.057c-9.371 6.199-23.711 7.29-32.408 2.497z" />
<glyph unicode="&#xe909;" glyph-name="list-dashes" d="M152.364 734.84c-7.568-1.896-13.036-5.748-18.704-13.18-4.172-5.468-4.808-7.82-4.808-17.796 0-10.252 0.564-12.204 5.22-18.052 2.872-3.608 8.6-8.288 12.736-10.4 7.124-3.636 9.484-3.84 45.192-3.84s38.068 0.204 45.192 3.84c4.136 2.112 9.864 6.792 12.736 10.4 4.668 5.868 5.22 7.784 5.22 18.188 0 10.464-0.532 12.288-5.304 18.188-10.416 12.892-12.22 13.344-54.432 13.708-20.648 0.176-40.024-0.3-43.048-1.056zM375.676 734.732c-16.712-3.988-27.004-22.152-22.348-39.436 2.504-9.304 12.284-19.308 21.324-21.82 4.808-1.332 78.064-1.888 250.908-1.892l244.116-0.012 7.516 3.84c4.136 2.112 9.864 6.792 12.736 10.4 4.668 5.868 5.22 7.784 5.22 18.188 0 10.464-0.532 12.288-5.304 18.188-2.912 3.608-7.904 8.096-11.092 9.972-5.712 3.368-9.108 3.416-251.552 3.68-135.168 0.148-248.352-0.352-251.524-1.108zM152.364 478.84c-7.568-1.896-13.036-5.748-18.704-13.18-4.172-5.468-4.808-7.82-4.808-17.796 0-10.252 0.564-12.204 5.22-18.052 2.872-3.608 8.6-8.288 12.736-10.4 7.124-3.636 9.484-3.84 45.192-3.84s38.068 0.204 45.192 3.84c4.136 2.112 9.864 6.792 12.736 10.4 4.668 5.868 5.22 7.784 5.22 18.188 0 10.464-0.532 12.288-5.304 18.188-10.416 12.892-12.22 13.344-54.432 13.708-20.648 0.176-40.024-0.3-43.048-1.056zM375.676 478.732c-16.712-3.988-27.004-22.152-22.348-39.436 2.504-9.304 12.284-19.308 21.324-21.82 4.808-1.332 78.064-1.888 250.908-1.892l244.116-0.012 7.516 3.84c4.136 2.112 9.864 6.792 12.736 10.4 4.668 5.868 5.22 7.784 5.22 18.188 0 10.464-0.532 12.288-5.304 18.188-2.912 3.608-7.904 8.096-11.092 9.972-5.712 3.368-9.108 3.416-251.552 3.68-135.168 0.148-248.352-0.352-251.524-1.108zM152.364 222.84c-7.568-1.896-13.036-5.748-18.704-13.18-4.172-5.468-4.808-7.82-4.808-17.796 0-10.252 0.564-12.204 5.22-18.052 2.872-3.608 8.6-8.288 12.736-10.4 7.124-3.636 9.484-3.84 45.192-3.84s38.068 0.204 45.192 3.84c4.136 2.112 9.864 6.792 12.736 10.4 4.668 5.868 5.22 7.784 5.22 18.188 0 10.464-0.532 12.288-5.304 18.188-10.416 12.892-12.22 13.344-54.432 13.708-20.648 0.176-40.024-0.3-43.048-1.056zM375.676 222.732c-16.712-3.988-27.004-22.152-22.348-39.436 2.504-9.304 12.284-19.308 21.324-21.82 4.808-1.332 78.064-1.888 250.908-1.892l244.116-0.012 7.516 3.84c4.136 2.112 9.864 6.792 12.736 10.4 4.668 5.868 5.22 7.784 5.22 18.188 0 10.464-0.532 12.288-5.304 18.188-2.912 3.608-7.904 8.096-11.092 9.972-5.712 3.368-9.108 3.416-251.552 3.68-135.168 0.148-248.352-0.352-251.524-1.108z" />
<glyph unicode="&#xe90a;" glyph-name="list" d="M136.252 751.963c-0.977-0.337-3.952-1.084-6.623-1.654-11.421-2.497-23.039-18.479-23.039-31.691 0-7.74 5.168-19.358 10.977-24.699 11.085-10.173-15.406-9.528 394.358-9.528s383.279-0.641 394.358 9.528c5.678 5.201 10.944 16.893 11.011 24.287 0.065 11.823-7.806 24.665-18.884 30.747-4.963 2.769-35.372 3.007-382.871 3.311-207.639 0.171-378.311 0.033-379.294-0.304zM136.252 481.689c-0.977-0.337-3.952-1.084-6.623-1.654-11.421-2.497-23.039-18.479-23.039-31.691 0-7.74 5.168-19.358 10.977-24.699 11.085-10.173-15.406-9.528 394.358-9.528s383.279-0.641 394.358 9.528c5.678 5.201 10.944 16.893 11.011 24.287 0.065 11.823-7.806 24.665-18.884 30.747-4.963 2.769-35.372 3.007-382.871 3.311-207.639 0.171-378.311 0.033-379.294-0.304zM136.252 211.416c-0.977-0.337-3.952-1.084-6.623-1.654-11.421-2.497-23.039-18.479-23.039-31.691 0-7.74 5.168-19.358 10.977-24.699 11.085-10.173-15.406-9.528 394.358-9.528s383.279-0.641 394.358 9.528c5.678 5.201 10.944 16.893 11.011 24.287 0.065 11.823-7.806 24.665-18.884 30.747-4.963 2.769-35.372 3.007-382.871 3.311-207.639 0.171-378.311 0.033-379.294-0.304z" />
<glyph unicode="&#xe90b;" glyph-name="lock-simple" d="M477.367 901.334c-61.322-10.316-117.839-51.95-145.741-107.323-7.764-14.805-14.12-31.981-18.199-50.014l-0.269-1.43c-3.147-14.039-3.754-24.76-4.498-79.752l-0.882-63.518-152.135-1.013-12.043-5.955c-14.089-7.11-25.159-18.491-31.684-32.419l-0.178-0.426-4.701-9.91v-506.906l5.043-10.823c6.632-14.208 20.533-28.178 34.434-34.603l11.027-5.074h708.932l11.027 5.074c13.901 6.425 27.802 20.395 34.434 34.603l5.043 10.823v506.906l-4.701 9.91c-6.703 14.348-17.773 25.729-31.475 32.666l-0.388 0.178-12.043 5.955-152.104 1.013-0.913 63.518c-0.775 54.728-1.42 65.789-4.53 79.752-15.828 71.163-64.907 126.805-132.754 150.515-29.867 10.454-68.729 13.632-100.692 8.252zM543.997 832.636c36.328-8.083 70.556-35.309 87.804-69.843 13.901-27.871 14.208-29.936 15.052-100.929l0.712-62.711h-271.095l0.676 62.711c0.775 70.994 1.082 72.921 15.052 100.929 5.274 10.585 12.28 20.939 19.175 28.477 34.671 37.811 82.024 52.595 132.623 41.365zM849.32 295.22v-237.237h-674.637v474.436h674.637v-237.199z" />
<glyph unicode="&#xe90c;" glyph-name="magnifying-glass" d="M420.552 862.704c-92.524-6.492-181.636-52.46-242.44-125.060-109.44-130.668-109.42-321.072 0.044-451.288 62.3-74.112 146.848-117.448 244.644-125.396 84.588-6.876 176.352 21.216 242.8 74.328l7.68 6.14 103.252-103.092c92.884-92.736 104.004-103.288 110.7-105.044 24.388-6.4 45.876 15.088 39.476 39.476-1.756 6.696-12.308 17.816-105.044 110.7l-103.092 103.252 6.14 7.68c62.172 77.78 88.528 186.636 68.896 284.556-24.056 120.004-105.348 216.94-219.284 261.488-45.896 17.944-101.196 25.948-153.772 22.26zM485.884 796.964c128.344-16.636 230.444-118.736 247.080-247.080 17.448-134.612-59.272-261.356-186.624-308.312-62.288-22.968-134.392-22.968-196.68 0-101.288 37.344-172.884 126.56-186.624 232.544-11.672 90.064 17.872 177.14 81.788 241.060 63.904 63.904 151.016 93.46 241.060 81.788z" />
<glyph unicode="&#xe90d;" glyph-name="play" d="M182.874 903.13c-21.423-3.725-41.581-19.701-51.451-40.777l-5.023-10.712v-807.392l6.113-12.434c7.691-15.591 22.441-29.571 37.438-35.435 13.451-5.232 36.525-5.688 49.031-0.985 13.732 5.199 645.625 392.512 656.794 402.623 28.695 25.846 29.258 72.913 1.226 98.968-5.271 4.879-134.234 84.923-317.916 197.273-350.363 214.27-333.194 203.911-341.902 206.618-6.726 1.966-14.449 3.102-22.441 3.102-4.189 0-8.304-0.31-12.32-0.913l0.457 0.052zM536.995 625.537c158.886-97.109 288.906-177.008 288.906-177.537 0.032-0.529-141.537-87.486-314.615-193.271l-314.647-192.286v771.287l25.742-15.807 314.615-192.39z" />
<glyph unicode="&#xe90e;" glyph-name="rocket" d="M490.856 916.947c-18.107-6.473-42.555-26.368-81.501-66.258-56.413-57.793-95.999-116.398-125.504-185.893-20.367-47.916-35.101-104.46-39.586-151.835l-1.248-13.354-60.357-72.495c-15.815-18.547-36.931-44.102-57.779-69.89l-6.759-8.645c-5.565-7.996-10.889-25.592-10.889-35.878 0-12.206 53.276-250.903 58.674-262.941 5.933-13.184 20.063-27.244 33.753-33.585 9.473-4.385 13.218-5.057 27.176-5.057 13.722 0 17.703 0.708 26.3 4.752 5.597 2.596 37.019 25.052 69.899 49.904l59.749 45.151h258.189l59.817-45.183c32.877-24.852 64.338-47.307 69.867-49.904 8.529-4.013 12.542-4.721 26.232-4.721 13.958 0 17.703 0.68 27.176 5.057 13.69 6.344 27.819 20.399 33.753 33.585 5.4 12.038 58.674 250.735 58.674 262.941 0 10.286-5.329 27.884-10.858 35.878-2.292 3.305-31.325 38.61-64.538 78.464l-60.357 72.427-2.224 20.163c-4.988 45.115-19.759 100.857-38.238 144.282-30.077 70.675-68.855 128.168-125.908 186.769-31.461 32.337-58.029 54.997-73.439 62.686-14.734 7.317-35.474 8.802-50.072 3.572zM530.479 837.643c96.099-83.017 158.852-191.222 178.439-307.72 3.944-23.368 5.429-87.166 2.665-114.374-7.052-69.762-30.045-142.903-67.234-213.814l-11.33-21.579h-242.306l-11.33 21.579c-37.362 71.283-59.985 143.17-67.203 213.814-3.137 30.449-1.348 91.006 3.472 118.895 17.063 98.527 64.302 188.825 139.561 266.885 22.591 23.436 52.771 50.475 56.376 50.475 1.348 0.032 9.845-6.373 18.883-14.162zM498.918 581.443c-24.648-6.877-39.214-27.952-36.922-53.345 1.956-21.683 16.724-38.438 38.81-44.102 9.982-2.568 12.106-2.568 21.815-0.068 24.107 6.169 39.319 24.816 39.518 48.487 0.1 12.138-2.864 20.839-10.554 31.021-11.702 15.51-34.157 23.2-52.668 18.007zM249.295 372.586c10.417-62.178 34.187-131.709 66.526-194.763l12.274-23.94-49.467-37.226c-9.060-7.17-25.56-19.541-42.192-31.747l-8.488-5.951c-1.448-0.54-53.040 230.504-52.096 233.268 0.608 1.82 68.687 84.365 69.227 83.925 0.168-0.1 2.056-10.721 4.22-23.571zM847.609 312.769c0.776-1.86-49.231-232.057-50.816-233.945-0.844-0.976-99.708 73.98-99.708 75.6 0 0.844 5.565 12.61 12.374 26.2 34.965 69.867 58.438 141.89 67.606 207.745l1.18 8.566 34.225-40.934c18.815-22.523 34.629-41.978 35.131-43.226zM440.822 43.554c-1.683-0.562-3.926-1.162-6.214-1.661l-0.503-0.091c-2.696-0.572-7.857-3.677-11.498-6.877-18.848-16.554-14.194-44.643 9.237-55.469 6.609-3.068 12.914-3.336 80.017-3.336s73.408 0.268 80.017 3.336c13.286 6.137 20.703 17.163 20.703 30.753 0.009 0.322 0.018 0.69 0.018 1.071 0 8.234-3.314 15.697-8.693 21.116v0c-10.69 11.296-8.704 11.060-88.446 11.43-40.058 0.204-73.644 0.068-74.656-0.268z" />
<glyph unicode="&#xe90f;" glyph-name="shield-warning" d="M150.743 868.624c-20.524-7.073-36.257-23.282-42.542-43.624l-0.132-0.475c-3.668-11.843-3.735-14.46-2.991-163.855 0.778-164.198 0.715-162.904 11.471-216.845 18.078-88.743 55.76-166.663 108.418-232.003l-0.809 1.033c19.896-24.747 57.197-61.955 82.286-82.047 26.91-21.241 57.084-41.613 88.733-59.687l3.597-1.889c41.143-22.605 98.070-45.281 113.147-45.116 14.12 0.202 70.544 22.068 104.992 40.733 110.631 59.846 190.815 139.278 242.138 239.794 28.517 55.872 44.978 109.812 55.912 183.512 2.648 17.856 3.193 41.582 3.799 172.514 0.748 149.393 0.677 152.011-2.991 163.855-4.477 14.915-13.723 27.254-25.939 35.529l-0.233 0.141c-18.877 12.531 9.438 11.682-378.436 11.611-328.87-0.071-351.95-0.273-360.439-3.193zM850.036 655.991c-0.647-143.119-0.849-149.909-4.689-173.808-14.157-88.087-45.453-160.772-96.443-224.045-54.487-67.583-132.286-123.969-217.391-157.549l-19.351-7.64-13.238 5.060c-111.106 42.3-203.809 117.997-260.439 212.707-29.699 49.697-49.495 106.255-59.984 171.463-3.84 23.899-4.042 30.689-4.689 173.808l-0.677 148.889h677.567l-0.677-148.889zM503.34 667.392c-7.741-1.9-17.785-9.741-21.726-16.936-2.92-5.295-3.193-13.712-3.193-99.94 0-91.997 0.101-94.301 3.799-101.394 5.366-10.253 17.755-17.617 29.699-17.617s24.344 7.367 29.699 17.617c3.698 7.094 3.799 9.405 3.799 101.394 0 91.623-0.101 94.301-3.735 100.444-7.438 12.662-24.24 19.856-38.359 16.431zM494.72 360.045c-12.632-4.315-26.475-18.361-30.719-31.164-3.84-11.577-3.051-28.749 1.728-38.258 4.345-8.589 14.905-19.351 23.555-24.030 9.812-5.265 34.863-5.568 44.372-0.546 29.941 15.816 38.157 54.042 16.906 78.86-9.772 10.883-23.878 17.684-39.582 17.684-5.81 0-11.409-0.929-16.633-2.658l0.374 0.111z" />
<glyph unicode="&#xe910;" glyph-name="x" d="M166.288 812.378c-16.377-9.039-23.799-24.532-20.166-42.202 1.838-9.105 6.574-14.067 157.932-165.601l156.011-156.195-156.011-156.195c-152.603-152.82-156.054-156.421-157.999-165.818-0.847-3.321-1.332-7.142-1.332-11.068 0-0.243 0-0.481 0.013-0.71v0.033c0.368-1.169 1.169-4.558 1.838-7.49 1.287-5.981 11.201-18.111 17.477-21.485 7.418-3.963 16.641-5.062 26.146-3.124 9.105 1.871 14.134 6.683 165.601 157.932l156.195 155.978 156.195-155.978c151.533-151.35 156.496-156.095 165.601-157.932 9.506-1.947 18.729-0.847 26.146 3.124 6.282 3.375 16.194 15.505 17.477 21.485 0.664 2.941 1.47 6.315 1.838 7.49 0 0.206 0.013 0.435 0.013 0.664 0 3.939-0.493 7.765-1.437 11.403l0.069-0.322c-1.904 9.406-5.429 13.079-157.966 165.818l-155.978 156.195 155.978 156.195c152.527 152.754 156.054 156.421 157.966 165.818 1.103 5.291 1.687 10.575 1.353 11.75-0.459 1.483-1.090 3.997-1.667 6.532l-0.171 0.952c-1.437 6.532-11.494 18.328-18.912 22.187-7.267 3.742-23.908 3.596-31.726-0.298-3.459-1.72-75.7-72.459-160.539-157.198l-154.257-154.038-154.257 154.038c-84.839 84.727-157.080 155.461-160.539 157.198-7.168 3.558-25.127 4.077-30.925 0.847z" />
<glyph unicode="&#xe911;" glyph-name="user" d="M923.68 112c-60.92 105.32-154.8 180.84-264.36 216.64 84.826 51.143 140.68 142.783 140.68 247.469 0 159.058-128.942 288-288 288s-288-128.942-288-288c0-104.685 55.854-196.325 139.388-246.745l1.292-0.724c-109.56-35.76-203.44-111.28-264.36-216.64-2.964-4.761-4.721-10.54-4.721-16.73 0-17.673 14.327-32 32-32 12.076 0 22.59 6.689 28.038 16.565l0.083 0.165c75.36 130.24 208.56 208 356.28 208s280.92-77.76 356.28-208c5.532-10.040 16.045-16.73 28.121-16.73 17.673 0 32 14.327 32 32 0 6.19-1.757 11.969-4.8 16.866l0.079-0.136zM288 576c0 123.712 100.288 224 224 224s224-100.288 224-224c0-123.712-100.288-224-224-224v0c-123.657 0.137-223.863 100.343-224 223.987v0.013z" />
<glyph unicode="&#xe912;" glyph-name="info" d="M511.992 864.008c-229.75 0-416-186.25-416-416s186.25-416 416-416c229.75 0 416 186.25 416 416v0c-0.25 229.65-186.35 415.75-415.976 416h-0.024zM511.992 96.008c-194.404 0-352 157.596-352 352s157.596 352 352 352c194.404 0 352-157.596 352-352v0c-0.228-194.313-157.687-351.772-351.978-352h-0.022zM575.992 256.008c0-17.673-14.327-32-32-32v0c-35.346 0-64 28.654-64 64v0 160c-17.673 0-32 14.327-32 32s14.327 32 32 32v0c35.346 0 64-28.654 64-64v0-160c17.673 0 32-14.327 32-32v0zM447.992 624.008c0 26.51 21.49 48 48 48s48-21.49 48-48c0-26.51-21.49-48-48-48v0c-26.51 0-48 21.49-48 48v0z" />
<glyph unicode="&#xe913;" glyph-name="minus-circle" d="M704 448c0-17.673-14.327-32-32-32v0h-320c-17.673 0-32 14.327-32 32s14.327 32 32 32v0h320c17.673 0 32-14.327 32-32v0zM928 448c0-229.75-186.25-416-416-416s-416 186.25-416 416c0 229.75 186.25 416 416 416v0c229.65-0.25 415.75-186.35 416-415.976v-0.024zM864 448c0 194.404-157.596 352-352 352s-352-157.596-352-352c0-194.404 157.596-352 352-352v0c194.313 0.228 351.772 157.687 352 351.978v0.022z" />
<glyph unicode="&#xe914;" glyph-name="plus-circle" d="M512 864c-229.75 0-416-186.25-416-416s186.25-416 416-416c229.75 0 416 186.25 416 416v0c-0.25 229.65-186.35 415.75-415.976 416h-0.024zM512 96c-194.404 0-352 157.596-352 352s157.596 352 352 352c194.404 0 352-157.596 352-352v0c-0.228-194.313-157.687-351.772-351.978-352h-0.022zM704 448c0-17.673-14.327-32-32-32v0h-128v-128c0-17.673-14.327-32-32-32s-32 14.327-32 32v0 128h-128c-17.673 0-32 14.327-32 32s14.327 32 32 32v0h128v128c0 17.673 14.327 32 32 32s32-14.327 32-32v0-128h128c17.673 0 32-14.327 32-32v0z" />
<glyph unicode="&#xe915;" glyph-name="calendar-dots" d="M832 832h-96v32c0 17.673-14.327 32-32 32s-32-14.327-32-32v0-32h-320v32c0 17.673-14.327 32-32 32s-32-14.327-32-32v0-32h-96c-35.346 0-64-28.654-64-64v0-640c0-35.346 28.654-64 64-64v0h640c35.346 0 64 28.654 64 64v0 640c0 35.346-28.654 64-64 64v0zM288 768v-32c0-17.673 14.327-32 32-32s32 14.327 32 32v0 32h320v-32c0-17.673 14.327-32 32-32s32 14.327 32 32v0 32h96v-128h-640v128zM832 128h-640v448h640v-448zM560 432c0-26.51-21.49-48-48-48s-48 21.49-48 48c0 26.51 21.49 48 48 48v0c26.51 0 48-21.49 48-48v0zM736 432c0-26.51-21.49-48-48-48s-48 21.49-48 48c0 26.51 21.49 48 48 48v0c26.51 0 48-21.49 48-48v0zM384 272c0-26.51-21.49-48-48-48s-48 21.49-48 48c0 26.51 21.49 48 48 48v0c26.51 0 48-21.49 48-48v0zM560 272c0-26.51-21.49-48-48-48s-48 21.49-48 48c0 26.51 21.49 48 48 48v0c26.51 0 48-21.49 48-48v0zM736 272c0-26.51-21.49-48-48-48s-48 21.49-48 48c0 26.51 21.49 48 48 48v0c26.51 0 48-21.49 48-48v0z" />
<glyph unicode="&#xe916;" glyph-name="arrow-line-up" d="M822.64 406.64c5.794-5.794 9.378-13.799 9.378-22.64 0-17.683-14.335-32.018-32.018-32.018-8.841 0-16.846 3.584-22.64 9.378l-233.36 233.4v-530.76c0-17.673-14.327-32-32-32s-32 14.327-32 32v0 530.76l-233.36-233.4c-5.794-5.794-13.799-9.378-22.64-9.378-17.683 0-32.018 14.335-32.018 32.018 0 8.841 3.584 16.846 9.378 22.64v0l288 288c5.792 5.798 13.797 9.385 22.64 9.385s16.848-3.587 22.64-9.385v0zM864 832h-704c-17.673 0-32-14.327-32-32s14.327-32 32-32v0h704c17.673 0 32 14.327 32 32s-14.327 32-32 32v0z" />
<glyph unicode="&#xe917;" glyph-name="caret-up" d="M854.64 297.36c-5.792-5.798-13.797-9.385-22.64-9.385s-16.848 3.587-22.64 9.385v0l-297.36 297.4-297.36-297.4c-5.794-5.794-13.799-9.378-22.64-9.378-17.683 0-32.018 14.335-32.018 32.018 0 8.841 3.584 16.846 9.378 22.64v0l320 320c5.792 5.798 13.797 9.385 22.64 9.385s16.848-3.587 22.64-9.385v0l320-320c5.798-5.792 9.385-13.797 9.385-22.64s-3.587-16.848-9.385-22.64v0z" />
<glyph unicode="&#xe918;" glyph-name="caret-down" d="M854.64 553.36l-320-320c-5.792-5.798-13.797-9.385-22.64-9.385s-16.848 3.587-22.64 9.385v0l-320 320c-5.794 5.794-9.378 13.799-9.378 22.64 0 17.683 14.335 32.018 32.018 32.018 8.841 0 16.846-3.584 22.64-9.378l297.36-297.4 297.36 297.4c5.794 5.794 13.799 9.378 22.64 9.378 17.683 0 32.018-14.335 32.018-32.018 0-8.841-3.584-16.846-9.378-22.64v0z" />
<glyph unicode="&#xe919;" glyph-name="caret-left" d="M662.64 150.64c5.794-5.794 9.378-13.799 9.378-22.64 0-17.683-14.335-32.018-32.018-32.018-8.841 0-16.846 3.584-22.64 9.378l-320 320c-5.798 5.792-9.385 13.797-9.385 22.64s3.587 16.848 9.385 22.64v0l320 320c5.794 5.794 13.799 9.378 22.64 9.378 17.683 0 32.018-14.335 32.018-32.018 0-8.841-3.584-16.846-9.378-22.64v0l-297.4-297.36z" />
<glyph unicode="&#xe91a;" glyph-name="caret-right" d="M726.64 425.36l-320-320c-5.794-5.794-13.799-9.378-22.64-9.378-17.683 0-32.018 14.335-32.018 32.018 0 8.841 3.584 16.846 9.378 22.64l297.4 297.36-297.4 297.36c-5.794 5.794-9.378 13.799-9.378 22.64 0 17.683 14.335 32.018 32.018 32.018 8.841 0 16.846-3.584 22.64-9.378v0l320-320c5.798-5.792 9.385-13.797 9.385-22.64s-3.587-16.848-9.385-22.64v0z" />
<glyph unicode="&#xe91b;" glyph-name="tag-simple" d="M986.64 465.76l-182.64 273.72c-11.584 17.286-31.040 28.514-53.119 28.52h-590.881c-35.346 0-64-28.654-64-64v0-512c0-35.346 28.654-64 64-64v0h590.88c22.062 0.042 41.499 11.241 52.975 28.253l0.145 0.227 182.52 273.76c3.408 5.009 5.441 11.192 5.441 17.85 0 6.582-1.987 12.699-5.394 17.786l0.073-0.116zM750.88 192h-590.88v512h590.88l170.64-256z" />
<glyph unicode="&#xe91c;" glyph-name="pencil-simple" d="M909.24 666.52l-178.72 178.76c-11.582 11.585-27.584 18.75-45.26 18.75s-33.678-7.166-45.26-18.75l-493.24-493.28c-11.587-11.498-18.76-27.43-18.76-45.037 0-0.071 0-0.143 0-0.214v0.011-178.76c0-35.346 28.654-64 64-64v0h178.76c0.060 0 0.131 0 0.203 0 17.607 0 33.539 7.173 45.033 18.756l493.244 493.244c11.585 11.582 18.75 27.584 18.75 45.26s-7.166 33.678-18.75 45.26v0zM370.76 128h-178.76v178.76l352 352 178.76-178.76zM768 525.28l-178.76 178.72 96 96 178.76-178.72z" />
<glyph unicode="&#xe91d;" glyph-name="printer" d="M858.68 672h-58.68v128c0 17.673-14.327 32-32 32v0h-512c-17.673 0-32-14.327-32-32v0-128h-58.68c-55.88 0-101.32-43.080-101.32-96v-320c0-17.673 14.327-32 32-32v0h128v-128c0-17.673 14.327-32 32-32v0h512c17.673 0 32 14.327 32 32v0 128h128c17.673 0 32 14.327 32 32v0 320c0 52.92-45.44 96-101.32 96zM288 768h448v-96h-448zM736 128h-448v192h448zM896 288h-96v64c0 17.673-14.327 32-32 32v0h-512c-17.673 0-32-14.327-32-32v0-64h-96v288c0 17.64 16.76 32 37.32 32h693.36c20.56 0 37.32-14.36 37.32-32zM800 496c0-26.51-21.49-48-48-48s-48 21.49-48 48c0 26.51 21.49 48 48 48v0c26.51 0 48-21.49 48-48v0z" />
<glyph unicode="&#xe91e;" glyph-name="images" d="M864 800h-576c-35.346 0-64-28.654-64-64v0-64h-64c-35.346 0-64-28.654-64-64v0-448c0-35.346 28.654-64 64-64v0h576c35.346 0 64 28.654 64 64v0 64h64c35.346 0 64 28.654 64 64v0 448c0 35.346-28.654 64-64 64v0zM288 736h576v-251l-40.28 40.24c-11.582 11.585-27.584 18.75-45.26 18.75s-33.678-7.166-45.26-18.75l-80-80-176 176c-11.58 11.573-27.574 18.73-45.24 18.73s-33.66-7.157-45.24-18.731l-98.72-98.72zM736 160h-576v448h64v-320c0-35.346 28.654-64 64-64v0h448zM864 288h-576v144l144 144 198.64-198.64c5.79-5.786 13.787-9.365 22.62-9.365s16.83 3.579 22.62 9.365l102.64 102.64 85.48-85.52v-106.48zM640 624c0 26.51 21.49 48 48 48s48-21.49 48-48c0-26.51-21.49-48-48-48v0c-26.51 0-48 21.49-48 48v0z" />
<glyph unicode="&#xe91f;" glyph-name="parachute" d="M928 480c-0.273 229.641-186.359 415.727-415.974 416h-0.026c-229.641-0.273-415.727-186.359-416-415.974v-0.026c0-0.017 0-0.038 0-0.058 0-10.132 4.744-19.155 12.132-24.971l0.068-0.052c0.179-0.192 0.375-0.363 0.588-0.512l0.012-0.008 371.2-278.4v-80h-32c-17.673 0-32-14.327-32-32s14.327-32 32-32v0h128c17.673 0 32 14.327 32 32s-14.327 32-32 32v0h-32v80l371.2 278.4c7.807 5.9 12.8 15.167 12.8 25.6v0zM862.56 512h-159.24c-6.16 151.8-55.64 249.72-100.44 308 141.066-38.833 245.453-159.518 259.569-306.57l0.111-1.43zM512 824c21.213-18.806 39.566-40.134 54.79-63.675l0.73-1.205c30.44-47.12 66.28-126.6 71.76-247.12h-254.56c5.48 120.52 41.32 200 71.76 246.96 15.948 24.809 34.302 46.19 55.206 64.766l0.314 0.274zM617.6 448l-105.6-190.12-105.6 190.12zM333.16 448l78-140.36-187.16 140.36zM690.84 448h109.16l-187.16-140.36zM421.12 820c-44.8-58.28-94.28-156.2-100.44-308h-159.24c14.227 148.481 118.614 269.166 257.202 307.417l2.478 0.583z" />
<glyph unicode="&#xe920;" glyph-name="person-arms-spread" d="M640 800c0 70.692-57.308 128-128 128s-128-57.308-128-128c0-70.692 57.308-128 128-128v0c70.692 0 128 57.308 128 128v0zM512 736c-35.346 0-64 28.654-64 64s28.654 64 64 64c35.346 0 64-28.654 64-64v0c0-35.346-28.654-64-64-64v0zM926 609.16c-7.532 36.11-39.097 62.848-76.907 62.848-0.384 0-0.768-0.003-1.151-0.008l0.058 0.001h-672c-0.001 0-0.002 0-0.002 0-44.183 0-80-35.817-80-80 0-32.023 18.815-59.651 45.994-72.433l0.489-0.207h0.52l203-89.4-84-318.88c-4.528-9.733-7.17-21.128-7.17-33.14 0-44.277 35.893-80.17 80.17-80.17 32.265 0 60.078 19.060 72.794 46.534l0.206 0.496 104 179.48 104-179.48c13.413-26.473 40.421-44.302 71.594-44.302 44.183 0 80 35.817 80 80 0 10.957-2.203 21.4-6.19 30.91l0.196-0.527-84 318.88 203 89.4h0.52c27.897 12.468 46.985 39.972 46.985 71.935 0 6.409-0.767 12.638-2.215 18.602l0.11-0.537zM854.8 577.56l-227.72-100.24c-11.341-5.088-19.097-16.28-19.097-29.283 0-2.9 0.386-5.71 1.109-8.381l-0.052 0.224 91.48-347.88c0.524-2.067 1.195-3.864 2.033-5.564l-0.073 0.164c0.951-1.986 1.506-4.317 1.506-6.777 0-8.837-7.163-16-16-16-1.976 0-3.869 0.358-5.617 1.014l0.11-0.036c-4.011 1.5-7.188 4.443-8.959 8.183l-0.041 0.097c-0.472 1.005-0.926 1.83-1.422 2.627l0.062-0.107-132.44 228.4c-5.643 9.601-15.921 15.943-27.68 15.943s-22.037-6.343-27.598-15.793l-0.082-0.15-132.32-228.2c-0.434-0.69-0.888-1.515-1.295-2.368l-0.065-0.152c-1.812-3.837-4.989-6.78-8.89-8.244l-0.11-0.036c-1.637-0.619-3.53-0.977-5.506-0.977-8.837 0-16 7.163-16 16 0 2.461 0.555 4.791 1.548 6.874l-0.041-0.097c0.765 1.536 1.436 3.333 1.918 5.206l0.042 0.194 91.36 347.8c0.671 2.447 1.057 5.257 1.057 8.157 0 13.004-7.756 24.196-18.895 29.202l-0.202 0.081-227.72 100.12c-5.431 2.635-9.109 8.108-9.109 14.44 0 8.805 7.112 15.948 15.905 16h672.005c0.009 0 0.019 0 0.029 0 8.837 0 16-7.163 16-16 0-6.332-3.678-11.805-9.014-14.398l-0.095-0.042z" />
<glyph unicode="&#xe921;" glyph-name="pen" d="M909.28 666.52l-178.76 178.72c-11.582 11.585-27.584 18.75-45.26 18.75s-33.678-7.166-45.26-18.75l-493.24-493.24c-11.587-11.498-18.76-27.43-18.76-45.037 0-0.071 0-0.143 0-0.214v0.011-178.76c0-35.346 28.654-64 64-64v0h178.76c0.060 0 0.131 0 0.203 0 17.607 0 33.539 7.173 45.033 18.756l334.684 334.644 13.92-55.6-147.2-147.16c-5.797-5.793-9.384-13.797-9.384-22.64 0-17.675 14.329-32.004 32.004-32.004 8.833 0 16.829 3.578 22.62 9.364l160 160c5.803 5.793 9.393 13.801 9.393 22.648 0 2.753-0.348 5.425-1.001 7.974l0.048-0.222-27.6 110.44 105.8 105.8c11.585 11.582 18.75 27.584 18.75 45.26s-7.166 33.678-18.75 45.26v0zM192 242.76l114.76-114.76h-114.76zM384 141.24l-178.76 178.76 338.76 338.76 178.76-178.76zM768 525.24l-178.72 178.76 96 96 178.72-178.76z" />
<glyph unicode="&#xe922;" glyph-name="arrow-line-down" d="M201.36 489.36c-5.794 5.794-9.378 13.799-9.378 22.64 0 17.683 14.335 32.018 32.018 32.018 8.841 0 16.846-3.584 22.64-9.378v0l233.36-233.4v530.76c0 17.673 14.327 32 32 32s32-14.327 32-32v0-530.76l233.36 233.4c5.794 5.794 13.799 9.378 22.64 9.378 17.683 0 32.018-14.335 32.018-32.018 0-8.841-3.584-16.846-9.378-22.64l-288-288c-5.792-5.798-13.797-9.385-22.64-9.385s-16.848 3.587-22.64 9.385v0zM864 128h-704c-17.673 0-32-14.327-32-32s14.327-32 32-32v0h704c17.673 0 32 14.327 32 32s-14.327 32-32 32v0z" />
<glyph unicode="&#xe923;" glyph-name="sidebar" d="M864 800h-704c-35.346 0-64-28.654-64-64v0-576c0-35.346 28.654-64 64-64v0h704c35.346 0 64 28.654 64 64v0 576c0 35.346-28.654 64-64 64v0zM160 352h64c17.673 0 32 14.327 32 32s-14.327 32-32 32v0h-64v64h64c17.673 0 32 14.327 32 32s-14.327 32-32 32v0h-64v64h64c17.673 0 32 14.327 32 32s-14.327 32-32 32v0h-64v64h160v-576h-160zM864 160h-480v576h480v-576z" />
<glyph unicode="&#xe924;" glyph-name="circle-half" d="M512 864c-229.75 0-416-186.25-416-416s186.25-416 416-416c229.75 0 416 186.25 416 416v0c-0.25 229.65-186.35 415.75-415.976 416h-0.024zM544 798.52c23.757-2.211 45.514-6.45 66.444-12.618l-2.444 0.618v-677.2c-18.486-5.55-40.243-9.789-62.621-11.895l-1.379-0.105zM672 761.48c24.342-12.586 45.324-26.594 64.567-42.619l-0.567 0.459v-542.64c-18.675-15.566-39.657-29.573-62.055-41.238l-1.945-0.922zM160 448c0.227 183.046 139.963 333.385 318.579 350.411l1.421 0.109v-701.040c-180.037 17.135-319.773 167.474-320 350.497v0.023zM800 245.84v404.32c40.033-56.285 64.001-126.423 64.001-202.16s-23.968-145.875-64.733-203.245l0.732 1.085z" />
<glyph unicode="&#xe925;" glyph-name="star" d="M956.72 570.96c-8.252 24.821-30.285 42.819-56.802 45.024l-0.238 0.016-236 19.040-91.12 220.36c-10.048 24.023-33.359 40.594-60.54 40.594s-50.492-16.572-60.38-40.163l-0.16-0.431-91.040-220.32-236.12-19.080c-33.896-2.952-60.291-31.197-60.291-65.606 0-19.875 8.806-37.693 22.729-49.765l0.082-0.070 180-155.32-54.84-232.24c-1.178-4.648-1.854-9.983-1.854-15.476 0-36.186 29.334-65.52 65.52-65.52 12.706 0 24.568 3.617 34.611 9.877l-0.277-0.161 202 124.32 202.12-124.32c9.708-5.991 21.475-9.541 34.070-9.541 36.23 0 65.6 29.37 65.6 65.6 0 5.401-0.653 10.65-1.884 15.671l0.093-0.45-55.040 232.28 180 155.32c14.121 12.126 23.010 30 23.010 49.95 0 7.297-1.189 14.316-3.384 20.874l0.135-0.464zM895.36 549.080l-194.8-168c-6.819-5.902-11.108-14.569-11.108-24.239 0-2.626 0.316-5.178 0.913-7.62l-0.045 0.219 59.52-251.2c0.081-0.177 0.128-0.384 0.128-0.601 0-0.572-0.325-1.068-0.8-1.315l-0.008-0.004c-0.72-0.56-0.92-0.44-1.52 0l-218.88 134.6c-4.768 2.976-10.558 4.74-16.76 4.74s-11.992-1.764-16.895-4.819l0.135 0.079-218.88-134.68c-0.6-0.36-0.76-0.48-1.52 0-0.483 0.25-0.808 0.746-0.808 1.319 0 0.218 0.047 0.425 0.132 0.611l-0.004-0.009 59.52 251.2c0.551 2.223 0.868 4.775 0.868 7.401 0 9.669-4.289 18.337-11.067 24.204l-0.040 0.034-194.8 168c-0.48 0.4-0.92 0.76-0.52 2s0.72 1.080 1.32 1.16l255.68 20.64c12.183 1.076 22.322 8.835 26.802 19.549l0.078 0.211 98.48 238.44c0.32 0.68 0.44 1 1.4 1s1.080-0.32 1.4-1l98.72-238.44c4.598-10.925 14.785-18.664 26.884-19.672l0.116-0.008 255.68-20.64c0.6 0 0.96 0 1.32-1.16s0-1.6-0.64-2z" />
<glyph unicode="&#xe926;" glyph-name="star-fill" d="M937.16 500.6l-180-155.32 54.84-232.28c1.151-4.597 1.811-9.875 1.811-15.307 0-36.23-29.37-65.6-65.6-65.6-12.654 0-24.471 3.583-34.492 9.789l0.281-0.162-202 124.32-202.12-124.32c-9.708-5.991-21.475-9.541-34.070-9.541-36.23 0-65.6 29.37-65.6 65.6 0 5.401 0.653 10.65 1.884 15.671l-0.093-0.45 55.040 232.28-180 155.32c-13.991 12.141-22.788 29.95-22.788 49.814 0 34.33 26.275 62.524 59.812 65.568l0.256 0.019 236 19.040 91.040 220.32c10.048 24.023 33.359 40.594 60.54 40.594s50.492-16.572 60.38-40.163l0.16-0.431 91-220.32 236-19.040c33.896-2.952 60.291-31.197 60.291-65.606 0-19.875-8.806-37.693-22.729-49.765l-0.082-0.070z" />
<glyph unicode="&#xe927;" glyph-name="rss" d="M427.64 363.64c52.111-51.833 84.361-123.587 84.361-202.874 0-0.269 0-0.539-0.001-0.808v0.042c0-17.673-14.327-32-32-32s-32 14.327-32 32v0c0 123.712-100.288 224-224 224v0c-17.673 0-32 14.327-32 32s14.327 32 32 32v0c0.227 0.001 0.497 0.001 0.766 0.001 79.287 0 151.042-32.25 202.862-84.349l0.012-0.012zM224 640c-17.673 0-32-14.327-32-32s14.327-32 32-32v0c229.75 0 416-186.25 416-416v0c0-17.673 14.327-32 32-32s32 14.327 32 32v0c0 265.097-214.903 480-480 480v0zM699.16 635.16c-120.94 121.592-288.366 196.842-473.368 196.842-0.63 0-1.26-0.001-1.89-0.003h0.097c-17.673 0-32-14.327-32-32s14.327-32 32-32v0c0.492 0.001 1.074 0.002 1.656 0.002 167.373 0 318.846-68.079 428.238-178.056l0.026-0.026c110.004-109.418 178.082-260.891 178.082-428.264 0-0.582-0.001-1.164-0.002-1.746v0.090c0-17.673 14.327-32 32-32s32 14.327 32 32v0c0.002 0.532 0.002 1.162 0.002 1.792 0 185.002-75.251 352.427-196.813 473.339l-0.029 0.029zM240 224c-26.51 0-48-21.49-48-48s21.49-48 48-48c26.51 0 48 21.49 48 48v0c0 26.51-21.49 48-48 48v0z" />
</font>
</defs>
</svg>
